<svg version="1.1" id="Layer_1" xmlns="http://www.w3.org/2000/svg" xmlns:xlink="http://www.w3.org/1999/xlink" x="0px" y="0px"
	 width="100%" viewBox="0 0 500 500" enable-background="new 0 0 500 500" xml:space="preserve">
<path fill="#FFFFFF" opacity="1.000000" stroke="none" 
	d="
M316.000000,501.000000 
	C210.666687,501.000000 105.833382,501.000000 1.000056,501.000000 
	C1.000037,334.333405 1.000037,167.666794 1.000019,1.000146 
	C167.666565,1.000097 334.333130,1.000097 500.999756,1.000049 
	C500.999847,167.666519 500.999847,334.333038 500.999939,500.999786 
	C439.500000,501.000000 378.000000,501.000000 316.000000,501.000000 
M117.280861,407.689941 
	C126.382065,412.597504 135.448807,413.055908 145.087799,407.211853 
	C155.739532,399.192596 157.909622,388.641663 151.383606,377.084900 
	C150.908859,376.244202 151.109055,375.022430 151.550934,373.212402 
	C155.693924,372.720551 157.950714,374.641785 159.300293,378.536255 
	C162.670563,388.262024 166.372726,397.872253 169.816193,407.573425 
	C170.710205,410.092102 171.480804,411.800537 174.844955,411.807129 
	C178.193832,411.813690 179.072830,410.073090 179.969635,407.612091 
	C182.154922,401.615204 184.431061,395.651398 187.141052,388.418732 
	C189.535278,395.589142 191.485794,401.353577 193.378510,407.136932 
	C194.143570,409.474640 194.345520,411.765503 197.992767,411.802246 
	C201.547745,411.838013 202.883224,410.470001 203.953857,407.378204 
	C207.486328,397.177155 211.125153,387.002594 215.175598,377.001099 
	C215.864426,375.300262 218.782288,374.502167 220.670364,373.286987 
	C221.563568,374.943787 223.147949,376.568237 223.227371,378.263153 
	C223.531067,384.745514 223.176880,391.256836 223.411728,397.744904 
	C223.570282,402.125092 223.398361,405.830719 217.321625,405.219360 
	C217.423676,407.442261 217.502930,409.168701 217.575424,410.748138 
	C224.406082,410.748138 230.672424,410.748138 236.922638,410.748138 
	C236.922638,408.791595 236.922638,407.148407 236.922638,406.543182 
	C234.789978,404.734772 232.101822,403.558899 231.978104,402.156769 
	C231.479019,396.500702 231.771255,390.774780 231.771255,385.074677 
	C237.773193,391.797577 243.195419,398.522980 247.486465,405.905884 
	C250.950272,411.865509 255.427826,412.444641 261.408600,411.180389 
	C261.495026,409.910431 261.636200,408.781067 261.638611,407.651428 
	C261.658844,398.156525 261.749390,388.660156 261.612366,379.167206 
	C261.551422,374.944641 262.773224,372.797943 267.522217,372.958801 
	C272.245148,373.118774 271.759247,376.055908 271.743744,379.099915 
	C271.711487,385.429718 271.523834,391.769226 271.807129,398.086517 
	C271.999390,402.374176 271.646606,405.745880 266.304810,405.373199 
	C266.304810,407.361938 266.304810,408.971252 266.304810,410.790039 
	C279.600220,410.790039 292.677399,410.790039 305.782867,410.790039 
	C306.157135,406.807617 306.506989,403.084869 306.946503,398.408478 
	C308.373474,400.336884 309.216888,401.476654 310.039856,402.859802 
	C310.039856,402.859802 310.477020,402.983032 310.918945,403.501495 
	C311.930542,404.351410 312.942108,405.201294 314.000000,406.000000 
	C314.000000,406.000000 313.955353,406.052155 314.333344,406.618805 
	C315.744751,407.447998 317.101746,408.392517 318.576385,409.087585 
	C328.074707,413.564789 340.151306,411.570740 346.540283,404.800812 
	C347.019470,404.378357 347.498627,403.955902 348.461304,402.982544 
	C355.775299,392.921631 355.296814,383.457764 346.967773,373.235321 
	C346.860870,373.034241 346.698029,372.965332 345.893433,372.594604 
	C334.819550,364.381958 323.467682,364.525024 312.078888,373.130829 
	C311.755463,373.546539 311.432007,373.962250 310.693420,374.991486 
	C305.763306,380.685760 304.587280,387.331482 305.925781,394.731506 
	C304.208984,395.003601 302.654327,395.249969 301.252411,395.472137 
	C298.750397,403.578278 297.360840,404.362152 288.952301,404.124298 
	C284.910828,404.009918 283.213654,402.325928 283.253723,398.403442 
	C283.316681,392.237732 283.354767,386.069183 283.234589,379.905121 
	C283.157715,375.961731 283.020020,372.198578 288.688324,372.951935 
	C288.688324,370.833496 288.688324,369.229340 288.688324,367.439484 
	C275.089844,367.439484 261.716736,367.439484 248.311920,367.439484 
	C248.311920,369.463837 248.311920,371.083679 248.311920,371.343292 
	C250.526749,373.316467 253.020050,374.467560 253.157196,375.852081 
	C253.651367,380.841309 253.351364,385.909241 253.351364,392.519043 
	C247.611618,384.294098 242.755219,377.240173 237.769852,370.278595 
	C236.874756,369.028656 235.467804,367.280640 234.262848,367.252899 
	C223.855637,367.013153 213.440536,367.114929 202.887390,367.114929 
	C202.887390,369.383392 202.887390,371.013123 202.887390,372.603821 
	C204.349976,373.060089 205.680573,373.475159 207.446304,374.025970 
	C205.431793,379.813751 203.555573,385.204254 201.679337,390.594757 
	C201.284515,390.610626 200.889694,390.626465 200.494873,390.642303 
	C198.806107,385.106171 197.117355,379.570007 195.274857,373.529907 
	C201.046783,373.785583 200.034515,370.592957 199.646637,367.389069 
	C192.256317,367.389069 185.032959,367.389069 177.583282,367.389069 
	C177.583282,369.306641 177.583282,370.924469 177.583282,372.542297 
	C178.003113,372.279724 178.422928,372.017151 178.842758,371.754578 
	C180.149246,373.706970 182.837692,375.947937 182.501663,377.557373 
	C181.515625,382.280090 179.327118,386.751709 177.089981,392.704132 
	C174.612366,385.530670 172.604706,379.717926 170.543381,373.749756 
	C172.494171,373.339722 173.708405,373.084503 175.116470,372.788513 
	C174.994934,370.780273 174.890228,369.050140 174.795700,367.488373 
	C166.765701,367.488373 159.209732,367.488373 151.678741,367.488373 
	C151.433594,369.925507 151.228394,371.965546 150.599747,374.767731 
	C149.099777,373.811340 147.599823,372.854919 145.733841,371.313538 
	C138.384750,366.211792 130.323837,365.343475 122.075256,368.184387 
	C113.452873,371.154114 108.616844,377.780975 106.790688,386.295074 
	C105.406807,383.368896 104.012199,380.420044 102.287712,376.883240 
	C98.551804,371.835419 93.541519,368.302185 87.383476,367.906494 
	C78.354736,367.326385 69.261063,367.757111 60.098412,367.757111 
	C60.098412,369.310944 60.098412,370.940033 60.098412,372.569122 
	C60.576359,372.409485 61.054302,372.249878 61.532249,372.090271 
	C62.471596,374.002014 64.128494,375.879700 64.221115,377.831635 
	C64.551529,384.795410 64.288383,391.785187 64.375847,398.763550 
	C64.422127,402.456146 64.853340,406.240753 59.196640,404.935669 
	C59.196640,407.240173 59.196640,408.982025 59.196640,410.887299 
	C68.226326,410.887299 77.045303,411.390381 85.763123,410.669647 
	C89.960258,410.322632 93.966629,407.668152 98.705086,405.873016 
	C101.567642,401.884491 104.430206,397.895966 106.842094,394.535370 
	C108.563446,397.153595 110.797226,400.551300 113.287277,404.536530 
	C114.490982,405.392426 115.694679,406.248291 117.280861,407.689941 
M435.777039,374.282684 
	C431.343140,369.799316 425.782990,367.566284 419.670654,367.284729 
	C411.891785,366.926422 404.083893,367.197998 396.025513,367.197998 
	C396.025513,369.190125 396.025513,370.950775 396.025513,373.163116 
	C399.924255,372.247925 400.187988,374.554626 400.144531,377.484161 
	C400.030884,385.143494 400.183197,392.807159 400.037842,400.465424 
	C400.010529,401.903473 398.969635,404.580750 398.610382,404.544861 
	C396.631531,404.347198 394.495392,403.819916 392.863312,402.731049 
	C391.796265,402.019104 391.427917,400.189545 390.857880,398.814453 
	C387.043854,389.613983 383.252197,380.404144 379.470978,371.190125 
	C378.480591,368.776825 377.970520,366.564056 374.198059,366.563660 
	C370.246948,366.563202 370.013855,369.187622 369.083160,371.465576 
	C365.440704,380.381226 361.807251,389.304260 358.414215,398.316315 
	C357.018127,402.024414 355.560577,405.315033 351.183411,405.429779 
	C351.183411,407.495056 351.183411,409.094727 351.183411,410.814758 
	C357.166962,410.814758 362.925171,410.814758 368.826263,410.814758 
	C368.826263,408.835876 368.826263,407.085449 368.826263,405.238892 
	C367.361115,405.021729 366.088348,404.833069 364.822052,404.645386 
	C364.495605,400.322540 366.124786,398.338623 370.586243,398.845276 
	C374.487427,399.288300 379.741638,397.244843 379.425781,404.558075 
	C374.150360,404.540070 375.141479,407.694824 375.885559,410.919769 
	C390.788635,410.919769 405.463043,411.410675 420.072510,410.651825 
	C425.143524,410.388428 430.053741,407.028290 435.669708,404.822754 
	C444.333740,395.875275 444.492279,383.341888 435.777039,374.282684 
M369.618530,245.530121 
	C375.647583,227.254028 377.463226,208.613968 375.112518,189.467819 
	C371.568481,160.602097 359.445801,135.765182 338.726349,115.754005 
	C309.772949,87.790321 274.832794,76.134552 234.604263,80.912285 
	C208.623596,83.997871 185.771835,94.394165 166.823044,112.034172 
	C130.649384,145.709335 118.171326,187.526810 129.207916,235.446121 
	C142.213959,291.916595 195.715134,332.466400 252.942657,330.185272 
	C257.603851,330.039429 262.325226,330.322052 266.916229,329.676727 
	C292.631958,326.062103 315.423157,315.857056 334.726654,298.389008 
	C350.681793,283.950958 362.526733,266.700134 369.618530,245.530121 
z"/>
<path fill="#81B3FF" opacity="1.000000" stroke="none" 
	d="
M252.019684,330.059631 
	C195.715134,332.466400 142.213959,291.916595 129.207916,235.446121 
	C118.171326,187.526810 130.649384,145.709335 166.823044,112.034172 
	C185.771835,94.394165 208.623596,83.997871 234.604263,80.912285 
	C274.832794,76.134552 309.772949,87.790321 338.726349,115.754005 
	C359.445801,135.765182 371.568481,160.602097 375.112518,189.467819 
	C377.463226,208.613968 375.647583,227.254028 369.290222,245.443848 
	C367.958405,244.066116 367.079987,242.649673 365.933136,241.501297 
	C331.757294,207.280624 297.560059,173.081329 263.333984,138.910919 
	C262.199402,137.778198 260.729675,136.981140 259.244751,135.626892 
	C253.536880,134.685211 248.000488,134.144257 241.817627,133.540146 
	C241.817627,163.659286 241.817627,192.459152 241.817627,221.259003 
	C241.306152,221.577240 240.794678,221.895462 240.283203,222.213684 
	C228.005341,209.905502 215.727478,197.597321 204.282211,186.123779 
	C200.598969,189.313034 196.754456,192.641937 192.933563,195.950394 
	C193.442856,196.672577 193.674652,197.126358 194.017380,197.469315 
	C212.259338,215.723114 230.502121,233.976135 248.792236,252.181564 
	C249.519775,252.905716 250.706406,253.168640 251.846878,253.968384 
	C254.695145,257.377686 257.375671,260.465088 259.596252,263.669098 
	C238.901993,263.785706 218.667618,263.785706 197.616943,263.785706 
	C199.063004,268.479950 195.626083,272.917999 200.065018,276.628754 
	C208.810669,285.869263 217.498062,294.793640 226.203217,303.700653 
	C234.799347,312.496124 243.413467,321.274017 252.019684,330.059631 
z"/>
<path fill="#6B96D5" opacity="1.000000" stroke="none" 
	d="
M259.416199,136.027618 
	C260.729675,136.981140 262.199402,137.778198 263.333984,138.910919 
	C297.560059,173.081329 331.757294,207.280624 365.933136,241.501297 
	C367.079987,242.649673 367.958405,244.066116 369.028900,245.700241 
	C362.526733,266.700134 350.681793,283.950958 334.726654,298.389008 
	C315.423157,315.857056 292.631958,326.062103 266.916229,329.676727 
	C262.325226,330.322052 257.603851,330.039429 252.481171,330.122437 
	C243.413467,321.274017 234.799347,312.496124 226.203217,303.700653 
	C217.498062,294.793640 208.810669,285.869263 200.530823,276.564026 
	C235.116196,276.175568 269.286224,276.175568 303.614502,276.175568 
	C303.614502,271.755188 303.614502,268.034729 303.614502,263.552490 
	C288.883392,263.552490 274.469788,263.552490 260.056183,263.552490 
	C257.375671,260.465088 254.695145,257.377686 252.050995,253.708710 
	C271.196106,234.215836 290.304840,215.304535 308.916687,196.884979 
	C304.748932,192.254807 301.315186,188.440063 297.604126,184.317291 
	C295.904816,185.937454 294.472900,187.267487 293.079559,188.636749 
	C282.065247,199.460541 271.058289,210.291794 259.890564,221.060379 
	C259.732117,220.999985 259.394531,220.967178 259.321655,220.506973 
	C259.304565,192.040390 259.360382,164.033997 259.416199,136.027618 
z"/>
<path fill="#1D4C92" opacity="1.000000" stroke="none" 
	d="
M310.060303,402.616425 
	C309.216888,401.476654 308.373474,400.336884 306.946503,398.408478 
	C306.506989,403.084869 306.157135,406.807617 305.782867,410.790039 
	C292.677399,410.790039 279.600220,410.790039 266.304810,410.790039 
	C266.304810,408.971252 266.304810,407.361938 266.304810,405.373199 
	C271.646606,405.745880 271.999390,402.374176 271.807129,398.086517 
	C271.523834,391.769226 271.711487,385.429718 271.743744,379.099915 
	C271.759247,376.055908 272.245148,373.118774 267.522217,372.958801 
	C262.773224,372.797943 261.551422,374.944641 261.612366,379.167206 
	C261.749390,388.660156 261.658844,398.156525 261.638611,407.651428 
	C261.636200,408.781067 261.495026,409.910431 261.408600,411.180389 
	C255.427826,412.444641 250.950272,411.865509 247.486465,405.905884 
	C243.195419,398.522980 237.773193,391.797577 231.771255,385.074677 
	C231.771255,390.774780 231.479019,396.500702 231.978104,402.156769 
	C232.101822,403.558899 234.789978,404.734772 236.922638,406.543182 
	C236.922638,407.148407 236.922638,408.791595 236.922638,410.748138 
	C230.672424,410.748138 224.406082,410.748138 217.575424,410.748138 
	C217.502930,409.168701 217.423676,407.442261 217.321625,405.219360 
	C223.398361,405.830719 223.570282,402.125092 223.411728,397.744904 
	C223.176880,391.256836 223.531067,384.745514 223.227371,378.263153 
	C223.147949,376.568237 221.563568,374.943787 220.670349,373.286987 
	C218.782288,374.502167 215.864426,375.300262 215.175598,377.001099 
	C211.125153,387.002594 207.486328,397.177155 203.953857,407.378204 
	C202.883224,410.470001 201.547745,411.838013 197.992767,411.802246 
	C194.345520,411.765503 194.143570,409.474640 193.378510,407.136932 
	C191.485794,401.353577 189.535278,395.589142 187.141052,388.418732 
	C184.431061,395.651398 182.154922,401.615204 179.969635,407.612091 
	C179.072830,410.073090 178.193832,411.813690 174.844955,411.807129 
	C171.480804,411.800537 170.710205,410.092102 169.816193,407.573425 
	C166.372726,397.872253 162.670563,388.262024 159.300293,378.536255 
	C157.950714,374.641785 155.693924,372.720551 151.276306,373.605743 
	C151.001663,373.999084 151.023178,374.005554 151.023193,374.005554 
	C151.228394,371.965546 151.433594,369.925507 151.678741,367.488373 
	C159.209732,367.488373 166.765701,367.488373 174.795700,367.488373 
	C174.890228,369.050140 174.994934,370.780273 175.116470,372.788513 
	C173.708405,373.084503 172.494171,373.339722 170.543381,373.749756 
	C172.604706,379.717926 174.612366,385.530670 177.089981,392.704132 
	C179.327118,386.751709 181.515625,382.280090 182.501663,377.557373 
	C182.837692,375.947937 180.149246,373.706970 178.842758,371.754578 
	C178.422928,372.017151 178.003113,372.279724 177.583282,372.542297 
	C177.583282,370.924469 177.583282,369.306641 177.583282,367.389069 
	C185.032959,367.389069 192.256317,367.389069 199.646637,367.389069 
	C200.034515,370.592957 201.046783,373.785583 195.274857,373.529907 
	C197.117355,379.570007 198.806107,385.106171 200.494873,390.642303 
	C200.889694,390.626465 201.284515,390.610626 201.679337,390.594757 
	C203.555573,385.204254 205.431793,379.813751 207.446304,374.025970 
	C205.680573,373.475159 204.349976,373.060089 202.887390,372.603821 
	C202.887390,371.013123 202.887390,369.383392 202.887390,367.114929 
	C213.440536,367.114929 223.855637,367.013153 234.262848,367.252899 
	C235.467804,367.280640 236.874756,369.028656 237.769852,370.278595 
	C242.755219,377.240173 247.611618,384.294098 253.351364,392.519043 
	C253.351364,385.909241 253.651367,380.841309 253.157196,375.852081 
	C253.020050,374.467560 250.526749,373.316467 248.311920,371.343292 
	C248.311920,371.083679 248.311920,369.463837 248.311920,367.439484 
	C261.716736,367.439484 275.089844,367.439484 288.688324,367.439484 
	C288.688324,369.229340 288.688324,370.833496 288.688324,372.951935 
	C283.020020,372.198578 283.157715,375.961731 283.234589,379.905121 
	C283.354767,386.069183 283.316681,392.237732 283.253723,398.403442 
	C283.213654,402.325928 284.910828,404.009918 288.952301,404.124298 
	C297.360840,404.362152 298.750397,403.578278 301.252411,395.472137 
	C302.654327,395.249969 304.208984,395.003601 305.925781,394.731506 
	C304.587280,387.331482 305.763306,380.685760 311.148773,375.084595 
	C311.433624,375.958130 311.460632,376.861877 311.062317,377.500092 
	C306.709045,384.474792 305.931946,391.562622 309.928101,399.007874 
	C310.439178,399.960083 310.038544,401.401581 310.060303,402.616425 
M219.758301,370.698090 
	C223.632965,371.293030 225.505936,373.427368 225.481918,377.469482 
	C225.442352,384.128418 225.747543,390.789429 225.706635,397.448334 
	C225.679596,401.845093 225.847122,406.519897 220.266663,408.384644 
	C225.069839,408.384644 229.873032,408.384644 234.676224,408.384644 
	C229.832642,406.884766 229.560638,403.334900 229.671387,399.411377 
	C229.793594,395.081787 229.695541,390.745941 229.694214,386.412842 
	C229.693390,383.770691 229.694046,381.128540 229.694046,378.486389 
	C231.730072,379.663879 232.631912,380.852936 233.490326,382.072571 
	C239.338089,390.380951 244.995377,398.834717 251.168655,406.893372 
	C252.429977,408.539917 255.616837,408.711456 257.916077,409.562958 
	C258.534851,407.887482 259.640564,406.225616 259.687714,404.534210 
	C259.887421,397.373444 259.706390,390.203125 259.794830,383.037903 
	C259.858093,377.911652 257.899994,371.880157 265.203705,369.615967 
	C260.286835,369.615967 255.369934,369.615967 250.780792,369.615967 
	C252.389893,371.533234 255.010437,373.210419 255.125000,375.044159 
	C255.602493,382.686798 255.325958,390.376556 255.325958,398.972168 
	C248.832367,389.661926 242.911575,381.033447 236.798767,372.543213 
	C235.754639,371.092987 233.946198,369.367981 232.392715,369.266113 
	C227.942917,368.974304 223.442719,369.451416 218.118652,369.233704 
	C213.803238,369.233704 209.487823,369.233704 205.426376,369.233704 
	C206.911240,371.375122 209.233154,373.290192 208.908539,374.488007 
	C206.785278,382.322540 204.089294,390.001862 201.580444,397.731934 
	C198.631317,391.744354 196.810944,386.059357 195.017746,380.365814 
	C193.750412,376.341949 191.935471,372.178680 198.587540,369.655548 
	C191.605789,369.655548 185.861511,369.655548 180.601044,369.655548 
	C182.189926,372.204285 185.272598,374.942291 184.812195,376.804108 
	C183.093369,383.754822 180.213196,390.418335 177.768677,397.189606 
	C177.321609,397.172485 176.874542,397.155396 176.427475,397.138275 
	C174.545227,391.726349 172.697662,386.302032 170.769531,380.906525 
	C169.291000,376.769165 166.282898,372.451233 173.678879,369.620972 
	C166.386246,369.620972 160.273346,369.620972 154.160446,369.620972 
	C159.395309,371.958405 160.897003,376.531128 162.505310,381.118896 
	C165.309921,389.119141 168.168442,397.103760 171.225983,405.009216 
	C171.846634,406.613983 173.448273,407.839355 174.597656,409.239624 
	C175.939484,407.836151 177.833191,406.661774 178.527374,404.989441 
	C181.492569,397.846313 184.103561,390.556091 187.289459,382.142548 
	C190.172806,390.841553 192.518326,398.250702 195.145706,405.558502 
	C195.659378,406.987274 197.266098,408.023102 198.368637,409.240112 
	C199.657898,408.027740 201.553711,407.053070 202.137238,405.564148 
	C205.715424,396.433746 209.130722,387.232941 212.308777,377.955688 
	C213.531982,374.384979 215.412689,371.814941 219.758301,370.698090 
M300.257019,408.929840 
	C301.439667,408.591095 303.567352,408.406525 303.651886,407.888611 
	C304.207153,404.485107 304.321716,401.009705 304.580109,397.557739 
	C304.066589,397.176544 303.553101,396.795319 303.039612,396.414124 
	C301.812042,406.020325 295.466064,406.528320 288.524963,406.125580 
	C283.107666,405.811218 281.317902,404.255341 281.186646,398.883118 
	C281.040527,392.900696 281.128998,386.912018 281.152069,380.926178 
	C281.169434,376.421143 280.011658,371.337982 286.354156,369.640564 
	C280.660645,369.640564 274.967133,369.640564 269.273590,369.640564 
	C274.609467,371.036041 273.922485,375.132538 273.932281,378.833221 
	C273.948547,384.985413 273.973724,391.137909 273.925629,397.289764 
	C273.890778,401.744690 275.224792,406.909088 267.801727,407.648315 
	C268.902954,408.465729 269.144440,408.801636 269.388000,408.803131 
	C279.361694,408.864288 289.335571,408.895386 300.257019,408.929840 
z"/>
<path fill="#7CAFFB" opacity="1.000000" stroke="none" 
	d="
M310.050079,402.738098 
	C310.038544,401.401581 310.439178,399.960083 309.928101,399.007874 
	C305.931946,391.562622 306.709045,384.474792 311.062317,377.500092 
	C311.460632,376.861877 311.433624,375.958130 311.356323,374.777832 
	C311.432007,373.962250 311.755463,373.546539 312.641754,373.358185 
	C313.981842,373.407593 314.879944,373.422546 315.518097,373.022644 
	C324.627380,367.314575 333.733002,367.204468 342.985840,372.723755 
	C343.889465,373.262756 345.302643,372.947418 346.479309,373.028625 
	C346.698029,372.965332 346.860870,373.034241 346.692932,373.739746 
	C346.716980,375.159332 346.815216,376.216034 347.345612,376.967926 
	C352.863159,384.789673 352.900208,392.700043 347.663269,400.950745 
	C347.542511,401.633362 347.662262,402.113525 347.822083,402.830505 
	C347.862122,403.067291 347.977783,403.533417 347.977783,403.533417 
	C347.498627,403.955902 347.019470,404.378357 345.926910,404.513794 
	C335.837189,410.093994 326.151764,411.361969 316.080048,405.675415 
	C315.596771,405.402557 314.673645,405.908752 313.955353,406.052124 
	C313.955353,406.052155 314.000000,406.000000 314.274658,405.651886 
	C313.191895,404.530182 311.834442,403.756622 310.477020,402.983032 
	C310.477020,402.983032 310.039856,402.859802 310.050079,402.738098 
M342.102203,394.380981 
	C341.605682,389.357849 341.792358,384.138153 340.419739,379.367065 
	C339.058319,374.634766 335.042328,372.028931 329.763550,371.916168 
	C324.511566,371.804016 320.297638,374.086578 318.784851,378.833557 
	C317.282257,383.548431 316.470154,388.836639 316.907562,393.734802 
	C317.587311,401.345978 322.249786,405.690094 328.237152,406.093201 
	C335.237061,406.564484 339.417236,403.254974 342.102203,394.380981 
z"/>
<path fill="#15458D" opacity="1.000000" stroke="none" 
	d="
M435.037384,405.082550 
	C430.053741,407.028290 425.143524,410.388428 420.072510,410.651825 
	C405.463043,411.410675 390.788635,410.919769 375.885559,410.919769 
	C375.141479,407.694824 374.150360,404.540070 379.425781,404.558075 
	C379.741638,397.244843 374.487427,399.288300 370.586243,398.845276 
	C366.124786,398.338623 364.495605,400.322540 364.822052,404.645386 
	C366.088348,404.833069 367.361115,405.021729 368.826263,405.238892 
	C368.826263,407.085449 368.826263,408.835876 368.826263,410.814758 
	C362.925171,410.814758 357.166962,410.814758 351.183411,410.814758 
	C351.183411,409.094727 351.183411,407.495056 351.183411,405.429779 
	C355.560577,405.315033 357.018127,402.024414 358.414215,398.316315 
	C361.807251,389.304260 365.440704,380.381226 369.083160,371.465576 
	C370.013855,369.187622 370.246948,366.563202 374.198059,366.563660 
	C377.970520,366.564056 378.480591,368.776825 379.470978,371.190125 
	C383.252197,380.404144 387.043854,389.613983 390.857880,398.814453 
	C391.427917,400.189545 391.796265,402.019104 392.863312,402.731049 
	C394.495392,403.819916 396.631531,404.347198 398.610382,404.544861 
	C398.969635,404.580750 400.010529,401.903473 400.037842,400.465424 
	C400.183197,392.807159 400.030884,385.143494 400.144531,377.484161 
	C400.187988,374.554626 399.924255,372.247925 396.025513,373.163116 
	C396.025513,370.950775 396.025513,369.190125 396.025513,367.197998 
	C404.083893,367.197998 411.891785,366.926422 419.670654,367.284729 
	C425.782990,367.566284 431.343140,369.799316 435.796112,374.829895 
	C435.536072,375.587646 435.256958,375.798157 434.681702,375.844788 
	C423.567535,365.648529 410.537384,370.152527 399.283813,369.097809 
	C400.397949,372.675385 401.903717,375.479187 402.041656,378.348755 
	C402.401215,385.827667 402.382446,393.346283 402.014984,400.824493 
	C401.914917,402.860474 400.089661,406.441040 398.977600,406.471802 
	C396.351074,406.544495 393.274841,405.431274 391.152435,403.795837 
	C389.514008,402.533325 388.963287,399.784271 388.075623,397.635590 
	C384.519409,389.026978 381.093445,380.363342 377.418610,371.806274 
	C376.888367,370.571564 375.360260,369.243103 374.110168,369.028473 
	C373.313202,368.891663 371.761108,370.549194 371.264648,371.709106 
	C368.909912,377.210602 367.121277,382.971893 364.525574,388.348358 
	C361.204193,395.228027 361.022858,403.914093 352.096558,408.515076 
	C357.820251,408.515076 362.245453,408.515076 366.973694,408.515076 
	C365.151764,406.857849 362.805969,405.758026 362.483337,404.230835 
	C361.621460,400.150726 364.957184,396.947235 369.324646,396.927155 
	C370.990448,396.919495 372.706421,397.186218 374.312744,396.877045 
	C379.144348,395.947113 381.302582,398.769836 381.449371,402.718109 
	C381.521576,404.659821 379.285400,406.687378 377.925201,408.957581 
	C390.468567,408.957581 403.247803,408.831818 416.022827,409.009766 
	C422.566711,409.100922 428.552856,407.758179 434.172913,404.095215 
	C434.622101,404.505066 434.829742,404.793823 435.037384,405.082550 
z"/>
<path fill="#1E4C90" opacity="1.000000" stroke="none" 
	d="
M98.059387,406.058563 
	C93.966629,407.668152 89.960258,410.322632 85.763123,410.669647 
	C77.045303,411.390381 68.226326,410.887299 59.196640,410.887299 
	C59.196640,408.982025 59.196640,407.240173 59.196640,404.935669 
	C64.853340,406.240753 64.422127,402.456146 64.375847,398.763550 
	C64.288383,391.785187 64.551529,384.795410 64.221115,377.831635 
	C64.128494,375.879700 62.471596,374.002014 61.532249,372.090271 
	C61.054302,372.249878 60.576359,372.409485 60.098412,372.569122 
	C60.098412,370.940033 60.098412,369.310944 60.098412,367.757111 
	C69.261063,367.757111 78.354736,367.326385 87.383476,367.906494 
	C93.541519,368.302185 98.551804,371.835419 102.113922,377.475616 
	C101.718697,378.271637 101.497261,378.475311 101.069824,378.424164 
	C93.317589,369.444763 75.011963,365.591583 63.628841,369.599548 
	C64.567284,372.666565 66.059761,375.568085 66.243217,378.550140 
	C66.640335,385.005127 66.365623,391.501404 66.368530,397.980774 
	C66.370407,402.172974 67.336632,406.830505 61.031082,408.390625 
	C72.468750,407.963531 83.693321,411.178467 94.485687,406.264313 
	C95.493355,405.805450 96.838676,406.088165 98.035019,406.034729 
	C98.042816,406.042908 98.059387,406.058563 98.059387,406.058563 
z"/>
<path fill="#1E4C90" opacity="1.000000" stroke="none" 
	d="
M113.031006,403.948975 
	C110.797226,400.551300 108.563446,397.153595 106.842094,394.535370 
	C104.430206,397.895966 101.567642,401.884491 98.382233,405.965790 
	C98.059387,406.058563 98.042816,406.042908 97.746902,405.739136 
	C104.400238,397.327728 106.959488,388.592499 101.275818,378.678955 
	C101.497261,378.475311 101.718697,378.271637 102.278870,377.769592 
	C104.012199,380.420044 105.406807,383.368896 106.790688,386.295074 
	C108.616844,377.780975 113.452873,371.154114 122.075256,368.184387 
	C130.323837,365.343475 138.384750,366.211792 145.897568,371.625641 
	C146.061295,371.937744 146.022720,371.976959 145.710846,372.289612 
	C143.727402,371.919861 142.040421,371.272736 140.386871,370.549225 
	C131.580246,366.695648 120.605278,368.973511 114.087311,375.721039 
	C108.484291,381.521393 106.719849,393.398254 112.551193,400.619659 
	C113.161949,401.376007 112.856491,402.872223 112.990799,404.006805 
	C113.005470,403.988464 113.031006,403.948975 113.031006,403.948975 
z"/>
<path fill="#1E4C90" opacity="1.000000" stroke="none" 
	d="
M146.080582,371.918121 
	C147.599823,372.854919 149.099777,373.811340 150.811462,374.386658 
	C151.023178,374.005554 151.001663,373.999084 150.998566,373.988464 
	C151.109055,375.022430 150.908859,376.244202 151.383606,377.084900 
	C157.909622,388.641663 155.739532,399.192596 144.478378,407.030914 
	C143.668457,406.640686 143.467957,406.431396 143.530106,406.024841 
	C154.933197,397.197510 156.134735,386.168457 147.219360,375.103638 
	C146.553146,374.276794 146.409363,373.029053 146.022720,371.976959 
	C146.022720,371.976959 146.061295,371.937744 146.080582,371.918121 
z"/>
<path fill="#1D4C92" opacity="1.000000" stroke="none" 
	d="
M314.144348,406.335449 
	C314.673645,405.908752 315.596771,405.402557 316.080048,405.675415 
	C326.151764,411.361969 335.837189,410.093994 345.690063,404.415070 
	C340.151306,411.570740 328.074707,413.564789 318.576385,409.087585 
	C317.101746,408.392517 315.744751,407.447998 314.144348,406.335449 
z"/>
<path fill="#1D4C92" opacity="1.000000" stroke="none" 
	d="
M346.186371,372.811615 
	C345.302643,372.947418 343.889465,373.262756 342.985840,372.723755 
	C333.733002,367.204468 324.627380,367.314575 315.518097,373.022644 
	C314.879944,373.422546 313.981842,373.407593 312.842163,373.300629 
	C323.467682,364.525024 334.819550,364.381958 346.186371,372.811615 
z"/>
<path fill="#1C4C92" opacity="1.000000" stroke="none" 
	d="
M435.353546,404.952637 
	C434.829742,404.793823 434.622101,404.505066 434.347412,403.802917 
	C442.023956,394.734314 442.236847,386.376709 434.977875,376.008698 
	C435.256958,375.798157 435.536072,375.587646 435.931702,375.138000 
	C444.492279,383.341888 444.333740,395.875275 435.353546,404.952637 
z"/>
<path fill="#1D4C92" opacity="1.000000" stroke="none" 
	d="
M347.903778,400.748322 
	C352.900208,392.700043 352.863159,384.789673 347.345612,376.967926 
	C346.815216,376.216034 346.716980,375.159332 346.694916,373.882782 
	C355.296814,383.457764 355.775299,392.921631 348.219543,403.257996 
	C347.977783,403.533417 347.862122,403.067291 347.873383,402.369690 
	C347.891052,401.364166 347.897430,401.056244 347.903778,400.748322 
z"/>
<path fill="#1E4C90" opacity="1.000000" stroke="none" 
	d="
M144.168884,407.164673 
	C135.448807,413.055908 126.382065,412.597504 117.110886,407.375244 
	C116.940918,407.060577 116.983986,407.017548 117.297119,406.691345 
	C126.181221,409.650146 134.742477,411.190369 143.267456,406.222137 
	C143.467957,406.431396 143.668457,406.640686 144.168884,407.164673 
z"/>
<path fill="#1D4C92" opacity="1.000000" stroke="none" 
	d="
M310.697998,403.242249 
	C311.834442,403.756622 313.191895,404.530182 314.251526,405.677490 
	C312.942108,405.201294 311.930542,404.351410 310.697998,403.242249 
z"/>
<path fill="#1E4C90" opacity="1.000000" stroke="none" 
	d="
M116.919647,407.082367 
	C115.694679,406.248291 114.490982,405.392426 113.159142,404.242737 
	C113.031006,403.948975 113.005470,403.988464 113.299927,403.677368 
	C114.724258,404.583344 115.854126,405.800446 116.983994,407.017548 
	C116.983986,407.017548 116.940918,407.060577 116.919647,407.082367 
z"/>
<path fill="#FDFEFF" opacity="1.000000" stroke="none" 
	d="
M260.049042,221.120758 
	C271.058289,210.291794 282.065247,199.460541 293.079559,188.636749 
	C294.472900,187.267487 295.904816,185.937454 297.604126,184.317291 
	C301.315186,188.440063 304.748932,192.254807 308.916687,196.884979 
	C290.304840,215.304535 271.196106,234.215836 251.883240,253.386810 
	C250.706406,253.168640 249.519775,252.905716 248.792236,252.181564 
	C230.502121,233.976135 212.259338,215.723114 194.017380,197.469315 
	C193.674652,197.126358 193.442856,196.672577 192.933563,195.950394 
	C196.754456,192.641937 200.598969,189.313034 204.282211,186.123779 
	C215.727478,197.597321 228.005341,209.905502 240.283203,222.213684 
	C240.794678,221.895462 241.306152,221.577240 241.817627,221.259003 
	C241.817627,192.459152 241.817627,163.659286 241.817627,133.540146 
	C248.000488,134.144257 253.536880,134.685211 259.244751,135.626892 
	C259.360382,164.033997 259.304565,192.040390 259.271484,220.689621 
	C259.545837,221.261902 259.797424,221.191330 260.049042,221.120758 
z"/>
<path fill="#FFFFFF" opacity="1.000000" stroke="none" 
	d="
M259.596252,263.669098 
	C274.469788,263.552490 288.883392,263.552490 303.614502,263.552490 
	C303.614502,268.034729 303.614502,271.755188 303.614502,276.175568 
	C269.286224,276.175568 235.116196,276.175568 200.480347,276.240295 
	C195.626083,272.917999 199.063004,268.479950 197.616943,263.785706 
	C218.667618,263.785706 238.901993,263.785706 259.596252,263.669098 
z"/>
<path fill="#81B3FF" opacity="1.000000" stroke="none" 
	d="
M259.890564,221.060364 
	C259.797424,221.191330 259.545837,221.261902 259.344360,221.149826 
	C259.394531,220.967178 259.732117,220.999985 259.890564,221.060364 
z"/>
<path fill="#7BAEFA" opacity="1.000000" stroke="none" 
	d="
M218.974182,370.546997 
	C215.412689,371.814941 213.531982,374.384979 212.308777,377.955688 
	C209.130722,387.232941 205.715424,396.433746 202.137238,405.564148 
	C201.553711,407.053070 199.657898,408.027740 198.368652,409.240112 
	C197.266098,408.023102 195.659378,406.987274 195.145706,405.558502 
	C192.518326,398.250702 190.172806,390.841553 187.289459,382.142548 
	C184.103561,390.556091 181.492569,397.846313 178.527374,404.989441 
	C177.833191,406.661774 175.939484,407.836151 174.597656,409.239624 
	C173.448273,407.839355 171.846634,406.613983 171.225983,405.009216 
	C168.168442,397.103760 165.309921,389.119141 162.505310,381.118896 
	C160.897003,376.531128 159.395309,371.958405 154.160446,369.620972 
	C160.273346,369.620972 166.386246,369.620972 173.678879,369.620972 
	C166.282898,372.451233 169.291000,376.769165 170.769531,380.906525 
	C172.697662,386.302032 174.545227,391.726349 176.427475,397.138275 
	C176.874542,397.155396 177.321609,397.172485 177.768677,397.189606 
	C180.213196,390.418335 183.093369,383.754822 184.812195,376.804108 
	C185.272598,374.942291 182.189926,372.204285 180.601044,369.655548 
	C185.861511,369.655548 191.605789,369.655548 198.587540,369.655548 
	C191.935471,372.178680 193.750412,376.341949 195.017746,380.365814 
	C196.810944,386.059357 198.631317,391.744354 201.580444,397.731934 
	C204.089294,390.001862 206.785278,382.322540 208.908539,374.488007 
	C209.233154,373.290192 206.911240,371.375122 205.426376,369.233704 
	C209.487823,369.233704 213.803238,369.233704 218.547028,369.580750 
	C218.978500,370.134186 218.978088,370.340607 218.974182,370.546997 
z"/>
<path fill="#77AAF6" opacity="1.000000" stroke="none" 
	d="
M219.366241,370.622559 
	C218.978088,370.340607 218.978500,370.134186 218.968872,369.777039 
	C223.442719,369.451416 227.942917,368.974304 232.392715,369.266113 
	C233.946198,369.367981 235.754639,371.092987 236.798767,372.543213 
	C242.911575,381.033447 248.832367,389.661926 255.325958,398.972168 
	C255.325958,390.376556 255.602493,382.686798 255.125000,375.044159 
	C255.010437,373.210419 252.389893,371.533234 250.780792,369.615967 
	C255.369934,369.615967 260.286835,369.615967 265.203705,369.615967 
	C257.899994,371.880157 259.858093,377.911652 259.794830,383.037903 
	C259.706390,390.203125 259.887421,397.373444 259.687714,404.534210 
	C259.640564,406.225616 258.534851,407.887482 257.916077,409.562927 
	C255.616837,408.711456 252.429977,408.539917 251.168655,406.893372 
	C244.995377,398.834717 239.338089,390.380951 233.490326,382.072571 
	C232.631912,380.852936 231.730072,379.663879 229.694046,378.486389 
	C229.694046,381.128540 229.693390,383.770691 229.694214,386.412842 
	C229.695541,390.745941 229.793594,395.081787 229.671387,399.411377 
	C229.560638,403.334900 229.832642,406.884766 234.676224,408.384644 
	C229.873032,408.384644 225.069839,408.384644 220.266663,408.384644 
	C225.847122,406.519897 225.679596,401.845093 225.706635,397.448334 
	C225.747543,390.789429 225.442352,384.128418 225.481918,377.469482 
	C225.505936,373.427368 223.632965,371.293030 219.366241,370.622559 
z"/>
<path fill="#7DB0FC" opacity="1.000000" stroke="none" 
	d="
M299.783234,408.930054 
	C289.335571,408.895386 279.361694,408.864288 269.388000,408.803131 
	C269.144440,408.801636 268.902954,408.465729 267.801727,407.648315 
	C275.224792,406.909088 273.890778,401.744690 273.925629,397.289764 
	C273.973724,391.137909 273.948547,384.985413 273.932281,378.833221 
	C273.922485,375.132538 274.609467,371.036041 269.273590,369.640564 
	C274.967133,369.640564 280.660645,369.640564 286.354156,369.640564 
	C280.011658,371.337982 281.169434,376.421143 281.152069,380.926178 
	C281.128998,386.912018 281.040527,392.900696 281.186646,398.883118 
	C281.317902,404.255341 283.107666,405.811218 288.524963,406.125580 
	C295.466064,406.528320 301.812042,406.020325 303.039612,396.414124 
	C303.553101,396.795319 304.066589,397.176544 304.580109,397.557739 
	C304.321716,401.009705 304.207153,404.485107 303.651886,407.888611 
	C303.567352,408.406525 301.439667,408.591095 299.783234,408.930054 
z"/>
<path fill="#1D4C93" opacity="1.000000" stroke="none" 
	d="
M342.055359,394.785522 
	C339.417236,403.254974 335.237061,406.564484 328.237152,406.093201 
	C322.249786,405.690094 317.587311,401.345978 316.907562,393.734802 
	C316.470154,388.836639 317.282257,383.548431 318.784851,378.833557 
	C320.297638,374.086578 324.511566,371.804016 329.763550,371.916168 
	C335.042328,372.028931 339.058319,374.634766 340.419739,379.367065 
	C341.792358,384.138153 341.605682,389.357849 342.055359,394.785522 
M331.110657,403.954071 
	C339.862427,401.162842 343.481689,389.446594 338.507965,379.838562 
	C336.613617,376.179077 333.714081,374.016479 329.392456,374.038818 
	C325.075989,374.061127 321.524872,376.081085 320.489807,379.954529 
	C319.246246,384.608246 318.699036,389.697144 319.120880,394.485687 
	C319.689484,400.940338 323.537628,403.680023 331.110657,403.954071 
z"/>
<path fill="#1D4D93" opacity="1.000000" stroke="none" 
	d="
M347.663269,400.950745 
	C347.897430,401.056244 347.891052,401.364166 347.833344,402.132935 
	C347.662262,402.113525 347.542511,401.633362 347.663269,400.950745 
z"/>
<path fill="#7BAEFA" opacity="1.000000" stroke="none" 
	d="
M434.681702,375.844788 
	C442.236847,386.376709 442.023956,394.734314 434.105896,403.681793 
	C428.552856,407.758179 422.566711,409.100922 416.022827,409.009766 
	C403.247803,408.831818 390.468567,408.957581 377.925201,408.957581 
	C379.285400,406.687378 381.521576,404.659821 381.449371,402.718109 
	C381.302582,398.769836 379.144348,395.947113 374.312744,396.877045 
	C372.706421,397.186218 370.990448,396.919495 369.324646,396.927155 
	C364.957184,396.947235 361.621460,400.150726 362.483337,404.230835 
	C362.805969,405.758026 365.151764,406.857849 366.973694,408.515076 
	C362.245453,408.515076 357.820251,408.515076 352.096558,408.515076 
	C361.022858,403.914093 361.204193,395.228027 364.525574,388.348358 
	C367.121277,382.971893 368.909912,377.210602 371.264648,371.709106 
	C371.761108,370.549194 373.313202,368.891663 374.110168,369.028473 
	C375.360260,369.243103 376.888367,370.571564 377.418610,371.806274 
	C381.093445,380.363342 384.519409,389.026978 388.075623,397.635590 
	C388.963287,399.784271 389.514008,402.533325 391.152435,403.795837 
	C393.274841,405.431274 396.351074,406.544495 398.977600,406.471802 
	C400.089661,406.441040 401.914917,402.860474 402.014984,400.824493 
	C402.382446,393.346283 402.401215,385.827667 402.041656,378.348755 
	C401.903717,375.479187 400.397949,372.675385 399.283813,369.097809 
	C410.537384,370.152527 423.567535,365.648529 434.681702,375.844788 
M411.343781,403.969147 
	C417.698914,407.493774 425.164948,405.988678 428.957550,400.418396 
	C432.623352,395.034332 432.519653,383.509216 428.638702,378.103760 
	C423.982025,371.617920 417.373444,371.537170 409.879791,372.519440 
	C409.879791,378.526398 409.761902,384.296936 409.917938,390.060028 
	C410.037628,394.480927 410.502777,398.892487 411.343781,403.969147 
M367.475800,389.928864 
	C367.108429,391.131195 366.741028,392.333527 366.371155,393.544067 
	C370.390533,393.544067 374.061493,393.544067 378.284485,393.544067 
	C376.284363,388.378632 374.496552,383.761505 372.225952,377.897522 
	C370.401154,382.550262 369.092194,385.887787 367.475800,389.928864 
z"/>
<path fill="#7BAEFA" opacity="1.000000" stroke="none" 
	d="
M101.069824,378.424164 
	C106.959488,388.592499 104.400238,397.327728 97.739113,405.730957 
	C96.838676,406.088165 95.493355,405.805450 94.485687,406.264313 
	C83.693321,411.178467 72.468750,407.963531 61.031082,408.390625 
	C67.336632,406.830505 66.370407,402.172974 66.368530,397.980774 
	C66.365623,391.501404 66.640335,385.005127 66.243217,378.550140 
	C66.059761,375.568085 64.567284,372.666565 63.628841,369.599548 
	C75.011963,365.591583 93.317589,369.444763 101.069824,378.424164 
M74.022057,378.627991 
	C74.022087,384.627380 74.014343,390.626740 74.024071,396.626129 
	C74.037025,404.621216 77.563705,407.396362 85.363106,405.564941 
	C92.795601,403.819641 96.714294,397.073547 95.847000,387.516754 
	C94.972168,377.876862 89.913300,372.491516 81.380928,372.117035 
	C74.111832,371.798004 74.111832,371.797974 74.022057,378.627991 
z"/>
<path fill="#7CAFFB" opacity="1.000000" stroke="none" 
	d="
M117.297119,406.691345 
	C115.854126,405.800446 114.724258,404.583344 113.285255,403.695679 
	C112.856491,402.872223 113.161949,401.376007 112.551193,400.619659 
	C106.719849,393.398254 108.484291,381.521393 114.087311,375.721039 
	C120.605278,368.973511 131.580246,366.695648 140.386871,370.549225 
	C142.040421,371.272736 143.727402,371.919861 145.710846,372.289612 
	C146.409363,373.029053 146.553146,374.276794 147.219360,375.103638 
	C156.134735,386.168457 154.933197,397.197510 143.530106,406.024841 
	C134.742477,411.190369 126.181221,409.650146 117.297119,406.691345 
M136.099365,373.021088 
	C129.824005,371.005005 124.913765,372.108246 121.632500,376.271515 
	C116.915314,382.256683 116.517059,394.510315 120.833687,400.849487 
	C125.322594,407.441650 135.126160,408.043121 140.235596,402.020020 
	C146.375305,394.782562 145.238251,377.623291 136.099365,373.021088 
z"/>
<path fill="#FCFDFE" opacity="1.000000" stroke="none" 
	d="
M330.704315,403.977051 
	C323.537628,403.680023 319.689484,400.940338 319.120880,394.485687 
	C318.699036,389.697144 319.246246,384.608246 320.489807,379.954529 
	C321.524872,376.081085 325.075989,374.061127 329.392456,374.038818 
	C333.714081,374.016479 336.613617,376.179077 338.507965,379.838562 
	C343.481689,389.446594 339.862427,401.162842 330.704315,403.977051 
z"/>
<path fill="#1D4C92" opacity="1.000000" stroke="none" 
	d="
M411.079041,403.638672 
	C410.502777,398.892487 410.037628,394.480927 409.917938,390.060028 
	C409.761902,384.296936 409.879791,378.526398 409.879791,372.519440 
	C417.373444,371.537170 423.982025,371.617920 428.638702,378.103760 
	C432.519653,383.509216 432.623352,395.034332 428.957550,400.418396 
	C425.164948,405.988678 417.698914,407.493774 411.079041,403.638672 
M424.974640,401.654388 
	C429.935547,396.361786 431.002747,386.322784 427.285370,379.917419 
	C424.398193,374.942444 419.204559,373.237427 411.907013,375.019989 
	C411.907013,382.415436 411.881409,389.878479 411.915436,397.341248 
	C411.940674,402.871796 413.665283,404.445648 419.143829,403.700378 
	C420.905670,403.460693 422.585205,402.615692 424.974640,401.654388 
z"/>
<path fill="#144790" opacity="1.000000" stroke="none" 
	d="
M367.629517,389.577087 
	C369.092194,385.887787 370.401154,382.550262 372.225952,377.897522 
	C374.496552,383.761505 376.284363,388.378632 378.284485,393.544067 
	C374.061493,393.544067 370.390533,393.544067 366.371155,393.544067 
	C366.741028,392.333527 367.108429,391.131195 367.629517,389.577087 
M369.439728,391.539001 
	C371.206116,391.645996 372.972473,391.753021 375.469421,391.904297 
	C374.369385,389.007324 373.505585,386.732422 372.191681,383.272156 
	C370.946014,386.552399 370.143646,388.665253 369.439728,391.539001 
z"/>
<path fill="#13468F" opacity="1.000000" stroke="none" 
	d="
M74.022072,378.149567 
	C74.111832,371.797974 74.111832,371.798004 81.380928,372.117035 
	C89.913300,372.491516 94.972168,377.876862 95.847000,387.516754 
	C96.714294,397.073547 92.795601,403.819641 85.363106,405.564941 
	C77.563705,407.396362 74.037025,404.621216 74.024071,396.626129 
	C74.014343,390.626740 74.022087,384.627380 74.022072,378.149567 
M86.302711,403.080444 
	C93.136421,399.803650 95.766495,391.443909 92.769745,382.524841 
	C90.483047,375.719055 84.996002,373.142761 76.033089,374.883972 
	C76.033089,381.761719 76.030121,388.706055 76.033867,395.650421 
	C76.038223,403.731323 77.214851,404.677887 86.302711,403.080444 
z"/>
<path fill="#15468E" opacity="1.000000" stroke="none" 
	d="
M136.449982,373.194580 
	C145.238251,377.623291 146.375305,394.782562 140.235596,402.020020 
	C135.126160,408.043121 125.322594,407.441650 120.833687,400.849487 
	C116.517059,394.510315 116.915314,382.256683 121.632500,376.271515 
	C124.913765,372.108246 129.824005,371.005005 136.449982,373.194580 
M136.654892,402.448486 
	C142.692520,396.749390 143.871490,384.868530 139.059006,378.221405 
	C134.593277,372.053223 125.116844,372.369080 122.342842,379.446411 
	C120.504723,384.135956 119.956833,389.879761 120.663704,394.893250 
	C121.800507,402.956024 128.126953,405.765656 136.654892,402.448486 
z"/>
<path fill="#FBFCFD" opacity="1.000000" stroke="none" 
	d="
M424.638519,401.851013 
	C422.585205,402.615692 420.905670,403.460693 419.143829,403.700378 
	C413.665283,404.445648 411.940674,402.871796 411.915436,397.341248 
	C411.881409,389.878479 411.907013,382.415436 411.907013,375.019989 
	C419.204559,373.237427 424.398193,374.942444 427.285370,379.917419 
	C431.002747,386.322784 429.935547,396.361786 424.638519,401.851013 
z"/>
<path fill="#E1E7F0" opacity="1.000000" stroke="none" 
	d="
M369.390503,391.158569 
	C370.143646,388.665253 370.946014,386.552399 372.191681,383.272156 
	C373.505585,386.732422 374.369385,389.007324 375.469421,391.904297 
	C372.972473,391.753021 371.206116,391.645996 369.390503,391.158569 
z"/>
<path fill="#FAFBFD" opacity="1.000000" stroke="none" 
	d="
M85.921585,403.197968 
	C77.214851,404.677887 76.038223,403.731323 76.033867,395.650421 
	C76.030121,388.706055 76.033089,381.761719 76.033089,374.883972 
	C84.996002,373.142761 90.483047,375.719055 92.769745,382.524841 
	C95.766495,391.443909 93.136421,399.803650 85.921585,403.197968 
z"/>
<path fill="#FBFCFD" opacity="1.000000" stroke="none" 
	d="
M136.320618,402.654205 
	C128.126953,405.765656 121.800507,402.956024 120.663704,394.893250 
	C119.956833,389.879761 120.504723,384.135956 122.342842,379.446411 
	C125.116844,372.369080 134.593277,372.053223 139.059006,378.221405 
	C143.871490,384.868530 142.692520,396.749390 136.320618,402.654205 
z"/>
</svg>